<svg width="262" height="57" viewBox="0 0 262 57" fill="none" xmlns="http://www.w3.org/2000/svg">
<rect x="0.5" y="0.5" width="261" height="56" rx="4.5" fill="url(#paint0_linear_1_699)"/>
<rect x="0.5" y="0.5" width="261" height="56" rx="4.5" stroke="white"/>
<path d="M44.1378 35.5V22.4091H46.9055V27.8104H52.5241V22.4091H55.2855V35.5H52.5241V30.0923H46.9055V35.5H44.1378ZM57.4263 35.5V25.6818H60.1493V35.5H57.4263ZM58.7942 24.4162C58.3894 24.4162 58.0421 24.282 57.7523 24.0135C57.4668 23.7408 57.3241 23.4148 57.3241 23.0355C57.3241 22.6605 57.4668 22.3388 57.7523 22.0703C58.0421 21.7976 58.3894 21.6612 58.7942 21.6612C59.1991 21.6612 59.5442 21.7976 59.8297 22.0703C60.1195 22.3388 60.2644 22.6605 60.2644 23.0355C60.2644 23.4148 60.1195 23.7408 59.8297 24.0135C59.5442 24.282 59.1991 24.4162 58.7942 24.4162ZM62.2406 35.5V25.6818H64.8805V27.3949H64.9828C65.1618 26.7855 65.4622 26.3253 65.8841 26.0142C66.306 25.6989 66.7918 25.5412 67.3415 25.5412C67.4778 25.5412 67.6249 25.5497 67.7825 25.5668C67.9402 25.5838 68.0787 25.6072 68.198 25.6371V28.0533C68.0702 28.0149 67.8933 27.9808 67.6675 27.951C67.4416 27.9212 67.235 27.9062 67.0475 27.9062C66.6469 27.9062 66.2889 27.9936 65.9736 28.1683C65.6625 28.3388 65.4153 28.5774 65.2321 28.8842C65.0531 29.1911 64.9636 29.5447 64.9636 29.9453V35.5H62.2406ZM73.5333 35.6918C72.5233 35.6918 71.654 35.4872 70.9253 35.0781C70.2009 34.6648 69.6426 34.081 69.2506 33.3267C68.8586 32.5682 68.6625 31.6712 68.6625 30.6357C68.6625 29.6257 68.8586 28.7393 69.2506 27.9766C69.6426 27.2138 70.1945 26.6193 70.9061 26.1932C71.622 25.767 72.4615 25.554 73.4246 25.554C74.0723 25.554 74.6753 25.6584 75.2336 25.8672C75.7961 26.0717 76.2861 26.3807 76.7037 26.794C77.1256 27.2074 77.4537 27.7273 77.6881 28.3537C77.9225 28.9759 78.0397 29.7045 78.0397 30.5398V31.2876H69.7492V29.6001H75.4764C75.4764 29.2081 75.3912 28.8608 75.2208 28.5582C75.0503 28.2557 74.8138 28.0192 74.5112 27.8487C74.213 27.674 73.8657 27.5866 73.4693 27.5866C73.056 27.5866 72.6895 27.6825 72.3699 27.8743C72.0546 28.0618 71.8074 28.3153 71.6284 28.6349C71.4495 28.9503 71.3578 29.3018 71.3536 29.6896V31.294C71.3536 31.7798 71.4431 32.1996 71.622 32.5533C71.8053 32.907 72.0631 33.1797 72.3955 33.3714C72.7279 33.5632 73.122 33.6591 73.578 33.6591C73.8806 33.6591 74.1576 33.6165 74.409 33.5312C74.6604 33.446 74.8756 33.3182 75.0546 33.1477C75.2336 32.9773 75.3699 32.7685 75.4637 32.5213L77.9821 32.6875C77.8543 33.2926 77.5922 33.821 77.1959 34.2727C76.8039 34.7202 76.2968 35.0696 75.6746 35.321C75.0567 35.5682 74.3429 35.6918 73.5333 35.6918ZM83.3552 24.6911V22.4091H94.1066V24.6911H90.0988V35.5H87.363V24.6911H83.3552ZM98.7484 35.6918C97.7555 35.6918 96.8968 35.4808 96.1724 35.0589C95.4522 34.6328 94.8961 34.0405 94.504 33.282C94.112 32.5192 93.916 31.6349 93.916 30.6293C93.916 29.6151 94.112 28.7287 94.504 27.9702C94.8961 27.2074 95.4522 26.6151 96.1724 26.1932C96.8968 25.767 97.7555 25.554 98.7484 25.554C99.7412 25.554 100.598 25.767 101.318 26.1932C102.042 26.6151 102.601 27.2074 102.993 27.9702C103.385 28.7287 103.581 29.6151 103.581 30.6293C103.581 31.6349 103.385 32.5192 102.993 33.282C102.601 34.0405 102.042 34.6328 101.318 35.0589C100.598 35.4808 99.7412 35.6918 98.7484 35.6918ZM98.7611 33.5824C99.2128 33.5824 99.59 33.4545 99.8925 33.1989C100.195 32.9389 100.423 32.5852 100.576 32.1378C100.734 31.6903 100.813 31.1811 100.813 30.6101C100.813 30.0391 100.734 29.5298 100.576 29.0824C100.423 28.6349 100.195 28.2812 99.8925 28.0213C99.59 27.7614 99.2128 27.6314 98.7611 27.6314C98.3052 27.6314 97.9216 27.7614 97.6106 28.0213C97.3037 28.2812 97.0715 28.6349 96.9138 29.0824C96.7604 29.5298 96.6837 30.0391 96.6837 30.6101C96.6837 31.1811 96.7604 31.6903 96.9138 32.1378C97.0715 32.5852 97.3037 32.9389 97.6106 33.1989C97.9216 33.4545 98.3052 33.5824 98.7611 33.5824ZM105.261 39.1818V25.6818H107.946V27.331H108.067C108.187 27.0668 108.359 26.7983 108.585 26.5256C108.815 26.2486 109.114 26.0185 109.48 25.8352C109.851 25.6477 110.311 25.554 110.861 25.554C111.577 25.554 112.237 25.7415 112.842 26.1165C113.447 26.4872 113.931 27.0476 114.293 27.7976C114.656 28.5433 114.837 29.4787 114.837 30.6037C114.837 31.6989 114.66 32.6236 114.306 33.3778C113.957 34.1278 113.479 34.6967 112.874 35.0845C112.273 35.468 111.6 35.6598 110.854 35.6598C110.326 35.6598 109.876 35.5724 109.506 35.3977C109.139 35.223 108.839 35.0036 108.604 34.7393C108.37 34.4709 108.191 34.2003 108.067 33.9276H107.984V39.1818H105.261ZM107.927 30.5909C107.927 31.1747 108.008 31.6839 108.17 32.1186C108.332 32.5533 108.566 32.892 108.873 33.1349C109.18 33.3736 109.553 33.4929 109.991 33.4929C110.435 33.4929 110.81 33.3714 111.116 33.1286C111.423 32.8814 111.656 32.5405 111.813 32.1058C111.975 31.6669 112.056 31.1619 112.056 30.5909C112.056 30.0241 111.977 29.5256 111.82 29.0952C111.662 28.6648 111.43 28.3281 111.123 28.0852C110.816 27.8423 110.439 27.7209 109.991 27.7209C109.548 27.7209 109.173 27.8381 108.866 28.0724C108.564 28.3068 108.332 28.6392 108.17 29.0696C108.008 29.5 107.927 30.0071 107.927 30.5909ZM125.33 35.5H120.689V22.4091H125.368C126.685 22.4091 127.818 22.6712 128.769 23.1953C129.719 23.7152 130.45 24.4631 130.961 25.4389C131.477 26.4148 131.735 27.5824 131.735 28.9418C131.735 30.3054 131.477 31.4773 130.961 32.4574C130.45 33.4375 129.715 34.1896 128.756 34.7138C127.801 35.2379 126.659 35.5 125.33 35.5ZM123.457 33.1286H125.215C126.033 33.1286 126.721 32.9837 127.279 32.6939C127.842 32.3999 128.264 31.946 128.545 31.3324C128.83 30.7145 128.973 29.9176 128.973 28.9418C128.973 27.9744 128.83 27.1839 128.545 26.5703C128.264 25.9567 127.844 25.505 127.286 25.2152C126.727 24.9254 126.039 24.7805 125.221 24.7805H123.457V33.1286ZM138.118 35.6918C137.108 35.6918 136.239 35.4872 135.51 35.0781C134.786 34.6648 134.227 34.081 133.835 33.3267C133.443 32.5682 133.247 31.6712 133.247 30.6357C133.247 29.6257 133.443 28.7393 133.835 27.9766C134.227 27.2138 134.779 26.6193 135.491 26.1932C136.207 25.767 137.046 25.554 138.009 25.554C138.657 25.554 139.26 25.6584 139.818 25.8672C140.381 26.0717 140.871 26.3807 141.289 26.794C141.71 27.2074 142.039 27.7273 142.273 28.3537C142.507 28.9759 142.625 29.7045 142.625 30.5398V31.2876H134.334V29.6001H140.061C140.061 29.2081 139.976 28.8608 139.806 28.5582C139.635 28.2557 139.399 28.0192 139.096 27.8487C138.798 27.674 138.45 27.5866 138.054 27.5866C137.641 27.5866 137.274 27.6825 136.955 27.8743C136.639 28.0618 136.392 28.3153 136.213 28.6349C136.034 28.9503 135.943 29.3018 135.938 29.6896V31.294C135.938 31.7798 136.028 32.1996 136.207 32.5533C136.39 32.907 136.648 33.1797 136.98 33.3714C137.313 33.5632 137.707 33.6591 138.163 33.6591C138.465 33.6591 138.742 33.6165 138.994 33.5312C139.245 33.446 139.46 33.3182 139.639 33.1477C139.818 32.9773 139.955 32.7685 140.049 32.5213L142.567 32.6875C142.439 33.2926 142.177 33.821 141.781 34.2727C141.389 34.7202 140.882 35.0696 140.259 35.321C139.642 35.5682 138.928 35.6918 138.118 35.6918ZM153.201 25.6818L149.769 35.5H146.701L143.268 25.6818H146.144L148.183 32.7067H148.286L150.318 25.6818H153.201ZM158.663 35.6918C157.653 35.6918 156.783 35.4872 156.055 35.0781C155.33 34.6648 154.772 34.081 154.38 33.3267C153.988 32.5682 153.792 31.6712 153.792 30.6357C153.792 29.6257 153.988 28.7393 154.38 27.9766C154.772 27.2138 155.324 26.6193 156.036 26.1932C156.751 25.767 157.591 25.554 158.554 25.554C159.202 25.554 159.805 25.6584 160.363 25.8672C160.926 26.0717 161.416 26.3807 161.833 26.794C162.255 27.2074 162.583 27.7273 162.818 28.3537C163.052 28.9759 163.169 29.7045 163.169 30.5398V31.2876H154.879V29.6001H160.606C160.606 29.2081 160.521 28.8608 160.35 28.5582C160.18 28.2557 159.943 28.0192 159.641 27.8487C159.342 27.674 158.995 27.5866 158.599 27.5866C158.185 27.5866 157.819 27.6825 157.499 27.8743C157.184 28.0618 156.937 28.3153 156.758 28.6349C156.579 28.9503 156.487 29.3018 156.483 29.6896V31.294C156.483 31.7798 156.573 32.1996 156.751 32.5533C156.935 32.907 157.193 33.1797 157.525 33.3714C157.857 33.5632 158.251 33.6591 158.707 33.6591C159.01 33.6591 159.287 33.6165 159.538 33.5312C159.79 33.446 160.005 33.3182 160.184 33.1477C160.363 32.9773 160.499 32.7685 160.593 32.5213L163.112 32.6875C162.984 33.2926 162.722 33.821 162.325 34.2727C161.933 34.7202 161.426 35.0696 160.804 35.321C160.186 35.5682 159.472 35.6918 158.663 35.6918ZM167.579 22.4091V35.5H164.856V22.4091H167.579ZM174.106 35.6918C173.114 35.6918 172.255 35.4808 171.53 35.0589C170.81 34.6328 170.254 34.0405 169.862 33.282C169.47 32.5192 169.274 31.6349 169.274 30.6293C169.274 29.6151 169.47 28.7287 169.862 27.9702C170.254 27.2074 170.81 26.6151 171.53 26.1932C172.255 25.767 173.114 25.554 174.106 25.554C175.099 25.554 175.956 25.767 176.676 26.1932C177.401 26.6151 177.959 27.2074 178.351 27.9702C178.743 28.7287 178.939 29.6151 178.939 30.6293C178.939 31.6349 178.743 32.5192 178.351 33.282C177.959 34.0405 177.401 34.6328 176.676 35.0589C175.956 35.4808 175.099 35.6918 174.106 35.6918ZM174.119 33.5824C174.571 33.5824 174.948 33.4545 175.251 33.1989C175.553 32.9389 175.781 32.5852 175.935 32.1378C176.092 31.6903 176.171 31.1811 176.171 30.6101C176.171 30.0391 176.092 29.5298 175.935 29.0824C175.781 28.6349 175.553 28.2812 175.251 28.0213C174.948 27.7614 174.571 27.6314 174.119 27.6314C173.663 27.6314 173.28 27.7614 172.969 28.0213C172.662 28.2812 172.43 28.6349 172.272 29.0824C172.119 29.5298 172.042 30.0391 172.042 30.6101C172.042 31.1811 172.119 31.6903 172.272 32.1378C172.43 32.5852 172.662 32.9389 172.969 33.1989C173.28 33.4545 173.663 33.5824 174.119 33.5824ZM180.619 39.1818V25.6818H183.304V27.331H183.426C183.545 27.0668 183.717 26.7983 183.943 26.5256C184.173 26.2486 184.472 26.0185 184.838 25.8352C185.209 25.6477 185.669 25.554 186.219 25.554C186.935 25.554 187.595 25.7415 188.2 26.1165C188.806 26.4872 189.289 27.0476 189.651 27.7976C190.014 28.5433 190.195 29.4787 190.195 30.6037C190.195 31.6989 190.018 32.6236 189.664 33.3778C189.315 34.1278 188.837 34.6967 188.232 35.0845C187.632 35.468 186.958 35.6598 186.212 35.6598C185.684 35.6598 185.235 35.5724 184.864 35.3977C184.497 35.223 184.197 35.0036 183.962 34.7393C183.728 34.4709 183.549 34.2003 183.426 33.9276H183.342V39.1818H180.619ZM183.285 30.5909C183.285 31.1747 183.366 31.6839 183.528 32.1186C183.69 32.5533 183.924 32.892 184.231 33.1349C184.538 33.3736 184.911 33.4929 185.35 33.4929C185.793 33.4929 186.168 33.3714 186.475 33.1286C186.781 32.8814 187.014 32.5405 187.171 32.1058C187.333 31.6669 187.414 31.1619 187.414 30.5909C187.414 30.0241 187.335 29.5256 187.178 29.0952C187.02 28.6648 186.788 28.3281 186.481 28.0852C186.174 27.8423 185.797 27.7209 185.35 27.7209C184.906 27.7209 184.531 27.8381 184.225 28.0724C183.922 28.3068 183.69 28.6392 183.528 29.0696C183.366 29.5 183.285 30.0071 183.285 30.5909ZM196.395 35.6918C195.385 35.6918 194.515 35.4872 193.787 35.0781C193.062 34.6648 192.504 34.081 192.112 33.3267C191.72 32.5682 191.524 31.6712 191.524 30.6357C191.524 29.6257 191.72 28.7393 192.112 27.9766C192.504 27.2138 193.056 26.6193 193.767 26.1932C194.483 25.767 195.323 25.554 196.286 25.554C196.934 25.554 197.537 25.6584 198.095 25.8672C198.657 26.0717 199.147 26.3807 199.565 26.794C199.987 27.2074 200.315 27.7273 200.549 28.3537C200.784 28.9759 200.901 29.7045 200.901 30.5398V31.2876H192.61V29.6001H198.338C198.338 29.2081 198.252 28.8608 198.082 28.5582C197.912 28.2557 197.675 28.0192 197.372 27.8487C197.074 27.674 196.727 27.5866 196.331 27.5866C195.917 27.5866 195.551 27.6825 195.231 27.8743C194.916 28.0618 194.669 28.3153 194.49 28.6349C194.311 28.9503 194.219 29.3018 194.215 29.6896V31.294C194.215 31.7798 194.304 32.1996 194.483 32.5533C194.667 32.907 194.924 33.1797 195.257 33.3714C195.589 33.5632 195.983 33.6591 196.439 33.6591C196.742 33.6591 197.019 33.6165 197.27 33.5312C197.522 33.446 197.737 33.3182 197.916 33.1477C198.095 32.9773 198.231 32.7685 198.325 32.5213L200.843 32.6875C200.716 33.2926 200.453 33.821 200.057 34.2727C199.665 34.7202 199.158 35.0696 198.536 35.321C197.918 35.5682 197.204 35.6918 196.395 35.6918ZM202.588 35.5V25.6818H205.228V27.3949H205.33C205.509 26.7855 205.809 26.3253 206.231 26.0142C206.653 25.6989 207.139 25.5412 207.689 25.5412C207.825 25.5412 207.972 25.5497 208.13 25.5668C208.287 25.5838 208.426 25.6072 208.545 25.6371V28.0533C208.417 28.0149 208.241 27.9808 208.015 27.951C207.789 27.9212 207.582 27.9062 207.395 27.9062C206.994 27.9062 206.636 27.9936 206.321 28.1683C206.01 28.3388 205.763 28.5774 205.579 28.8842C205.4 29.1911 205.311 29.5447 205.311 29.9453V35.5H202.588ZM218.032 28.4815L215.539 28.6349C215.497 28.4219 215.405 28.2301 215.264 28.0597C215.124 27.8849 214.938 27.7464 214.708 27.6442C214.482 27.5376 214.212 27.4844 213.897 27.4844C213.475 27.4844 213.119 27.5739 212.829 27.7528C212.539 27.9276 212.394 28.1619 212.394 28.456C212.394 28.6903 212.488 28.8885 212.676 29.0504C212.863 29.2124 213.185 29.3423 213.641 29.4403L215.418 29.7983C216.372 29.9943 217.084 30.3097 217.553 30.7443C218.022 31.179 218.256 31.75 218.256 32.4574C218.256 33.1009 218.066 33.6655 217.687 34.1513C217.312 34.6371 216.796 35.0163 216.14 35.2891C215.488 35.5575 214.736 35.6918 213.884 35.6918C212.584 35.6918 211.549 35.4212 210.777 34.88C210.01 34.3345 209.561 33.593 209.428 32.6555L212.107 32.5149C212.188 32.9112 212.384 33.2138 212.695 33.4226C213.006 33.6271 213.404 33.7294 213.89 33.7294C214.367 33.7294 214.751 33.6378 215.041 33.4545C215.335 33.267 215.484 33.0263 215.488 32.7322C215.484 32.4851 215.379 32.2827 215.175 32.125C214.97 31.9631 214.655 31.8395 214.229 31.7543L212.529 31.4155C211.57 31.2237 210.856 30.8913 210.387 30.4183C209.923 29.9453 209.691 29.3423 209.691 28.6094C209.691 27.9787 209.861 27.4354 210.202 26.9794C210.547 26.5234 211.031 26.1719 211.653 25.9247C212.279 25.6776 213.012 25.554 213.852 25.554C215.092 25.554 216.068 25.8161 216.779 26.3402C217.495 26.8643 217.913 27.5781 218.032 28.4815Z" fill="#FAFAFA"/>
<defs>
<linearGradient id="paint0_linear_1_699" x1="262" y1="0" x2="238.319" y2="108.848" gradientUnits="userSpaceOnUse">
<stop stop-color="#FFC656"/>
<stop offset="1" stop-color="#F16063"/>
</linearGradient>
</defs>
</svg>
